<svg id="visual" viewBox="0 0 900 600" width="900" height="600" xmlns="http://www.w3.org/2000/svg" xmlns:xlink="http://www.w3.org/1999/xlink" version="1.1"><rect x="0" y="0" width="900" height="600" fill="#010d2f"></rect><defs><linearGradient id="grad1_0" x1="33.3%" y1="0%" x2="100%" y2="100%"><stop offset="20%" stop-color="#010d2f" stop-opacity="1"></stop><stop offset="80%" stop-color="#010d2f" stop-opacity="1"></stop></linearGradient></defs><defs><linearGradient id="grad2_0" x1="0%" y1="0%" x2="66.7%" y2="100%"><stop offset="20%" stop-color="#010d2f" stop-opacity="1"></stop><stop offset="80%" stop-color="#010d2f" stop-opacity="1"></stop></linearGradient></defs><g transform="translate(900, 0)"><path d="M0 486.7C-35 437.2 -69.9 387.6 -124.2 382.3C-178.5 377 -252.1 415.9 -286.1 393.8C-320.1 371.7 -314.6 288.5 -324.4 235.7C-334.2 182.9 -359.4 160.6 -389 126.4C-418.6 92.2 -452.7 46.1 -486.7 0L0 0Z" fill="#FBAE3C"></path></g><g transform="translate(0, 600)"><path d="M0 -486.7C42.8 -454.9 85.6 -423 133.5 -410.9C181.4 -398.7 234.5 -406.2 283.3 -389.9C332.1 -373.7 376.6 -333.8 393.8 -286.1C411 -238.4 400.9 -182.8 411.8 -133.8C422.8 -84.8 454.7 -42.4 486.7 0L0 0Z" fill="#FBAE3C"></path></g></svg>