<svg id="visual" viewBox="0 0 900 600" width="900" height="600" xmlns="http://www.w3.org/2000/svg" xmlns:xlink="http://www.w3.org/1999/xlink" version="1.1"><rect x="0" y="0" width="900" height="600" fill="#010d2f"></rect><defs><linearGradient id="grad1_0" x1="33.3%" y1="0%" x2="100%" y2="100%"><stop offset="20%" stop-color="#010d2f" stop-opacity="1"></stop><stop offset="80%" stop-color="#010d2f" stop-opacity="1"></stop></linearGradient></defs><defs><linearGradient id="grad2_0" x1="0%" y1="0%" x2="66.7%" y2="100%"><stop offset="20%" stop-color="#010d2f" stop-opacity="1"></stop><stop offset="80%" stop-color="#010d2f" stop-opacity="1"></stop></linearGradient></defs><g transform="translate(900, 0)"><path d="M0 540.8C-59.6 541.2 -119.1 541.6 -167.1 514.4C-215.1 487.1 -251.5 432.1 -280.4 385.9C-309.2 339.7 -330.6 302.1 -369.7 268.6C-408.9 235.1 -465.9 205.7 -497.4 161.6C-528.9 117.5 -534.9 58.8 -540.8 0L0 0Z" fill="#fbae3c"></path></g><g transform="translate(0, 600)"><path d="M0 -540.8C44.1 -490.5 88.1 -440.1 135.3 -416.6C182.6 -393 232.9 -396.1 275.1 -378.6C317.2 -361.1 351.2 -322.9 394 -286.3C436.8 -249.6 488.4 -214.6 514.4 -167.1C540.3 -119.7 540.6 -59.8 540.8 0L0 0Z" fill="#fbae3c"></path></g></svg>